<svg width="25" height="24" viewBox="0 0 25 24" fill="none" xmlns="http://www.w3.org/2000/svg">
<g opacity="0.6" clip-path="url(#clip0_516_5402)">
<path d="M24.2078 22.293L18.2388 16.324C19.8654 14.3346 20.6651 11.7961 20.4726 9.23357C20.2801 6.67103 19.11 4.28053 17.2043 2.55652C15.2987 0.832514 12.8034 -0.0931045 10.2344 -0.0288727C7.66545 0.0353591 5.21946 1.08453 3.40237 2.90162C1.58528 4.71871 0.536114 7.1647 0.471883 9.73365C0.407651 12.3026 1.33327 14.798 3.05728 16.7036C4.78129 18.6092 7.17179 19.7793 9.73432 19.9718C12.2969 20.1644 14.8354 19.3646 16.8248 17.738L22.7938 23.707C22.9824 23.8892 23.235 23.99 23.4972 23.9877C23.7594 23.9854 24.0102 23.8802 24.1956 23.6948C24.381 23.5094 24.4862 23.2586 24.4884 22.9964C24.4907 22.7342 24.3899 22.4816 24.2078 22.293ZM10.5008 18C8.91851 18 7.37179 17.5308 6.0562 16.6518C4.7406 15.7727 3.71522 14.5233 3.10972 13.0615C2.50422 11.5997 2.34579 9.99113 2.65448 8.43928C2.96316 6.88743 3.72508 5.46197 4.8439 4.34315C5.96272 3.22433 7.38819 2.4624 8.94004 2.15372C10.4919 1.84504 12.1004 2.00347 13.5622 2.60897C15.024 3.21447 16.2735 4.23985 17.1525 5.55544C18.0316 6.87104 18.5008 8.41775 18.5008 10C18.4984 12.121 17.6548 14.1545 16.155 15.6542C14.6552 17.154 12.6218 17.9976 10.5008 18Z" fill="white"/>
</g>
<defs>
<clipPath id="clip0_516_5402">
<rect width="24" height="24" fill="white" transform="translate(0.5)"/>
</clipPath>
</defs>
</svg>
