<svg width="40" height="40" viewBox="0 0 40 40" fill="none" xmlns="http://www.w3.org/2000/svg">
<path d="M8.24997 24.0496C7.425 26.1245 6.12502 28.1745 4.38751 30.1496C3.83751 30.7746 3.76251 31.6745 4.2125 32.3745C4.56254 32.9245 5.13749 33.2245 5.76249 33.2245C5.9375 33.2245 6.11252 33.2121 6.28754 33.1495C9.96246 32.0745 18.55 28.2621 18.7875 16.037C18.875 11.3246 15.425 7.27458 10.9375 6.81208C8.45001 6.56206 5.97504 7.37451 4.1375 9.02453C2.30004 10.6871 1.25 13.0621 1.25 15.5371C1.25 19.662 4.17504 23.2746 8.24997 24.0496Z" fill="#AF2C2C"/>
<path d="M30.888 6.81208C28.4129 6.56206 25.9379 7.37451 24.1005 9.02453C22.2629 10.6871 21.2129 13.0621 21.2129 15.5371C21.2129 19.662 24.1379 23.2745 28.2129 24.0496C27.3879 26.1245 26.0879 28.1745 24.3504 30.1496C23.8004 30.7746 23.7254 31.6745 24.1755 32.3745C24.5254 32.9245 25.1005 33.2245 25.7255 33.2245C25.9004 33.2245 26.0754 33.2121 26.2504 33.1495C29.9254 32.0745 38.5129 28.262 38.7504 16.037V15.8621C38.7504 11.2245 35.338 7.27458 30.888 6.81208Z" fill="#AF2C2C"/>
</svg>
