<svg width="49" height="48" viewBox="0 0 49 48" fill="none" xmlns="http://www.w3.org/2000/svg">
<g clip-path="url(#clip0_640_3312)">
<path d="M46.5 44H10.5C8.9087 44 7.38258 43.3679 6.25736 42.2426C5.13214 41.1174 4.5 39.5913 4.5 38V2C4.5 1.46957 4.28929 0.960859 3.91421 0.585786C3.53914 0.210714 3.03043 0 2.5 0C1.96957 0 1.46086 0.210714 1.08579 0.585786C0.710714 0.960859 0.5 1.46957 0.5 2L0.5 38C0.503176 40.6512 1.55776 43.1929 3.43244 45.0676C5.30712 46.9422 7.84881 47.9968 10.5 48H46.5C47.0304 48 47.5391 47.7893 47.9142 47.4142C48.2893 47.0391 48.5 46.5304 48.5 46C48.5 45.4696 48.2893 44.9609 47.9142 44.5858C47.5391 44.2107 47.0304 44 46.5 44Z" fill="#FBB040"/>
<path d="M12.5 40C13.0304 40 13.5391 39.7893 13.9142 39.4142C14.2893 39.0391 14.5 38.5304 14.5 38V24C14.5 23.4696 14.2893 22.9609 13.9142 22.5858C13.5391 22.2107 13.0304 22 12.5 22C11.9696 22 11.4609 22.2107 11.0858 22.5858C10.7107 22.9609 10.5 23.4696 10.5 24V38C10.5 38.5304 10.7107 39.0391 11.0858 39.4142C11.4609 39.7893 11.9696 40 12.5 40Z" fill="#FBB040"/>
<path d="M20.5 20V38C20.5 38.5304 20.7107 39.0391 21.0858 39.4142C21.4609 39.7893 21.9696 40 22.5 40C23.0304 40 23.5391 39.7893 23.9142 39.4142C24.2893 39.0391 24.5 38.5304 24.5 38V20C24.5 19.4696 24.2893 18.9609 23.9142 18.5858C23.5391 18.2107 23.0304 18 22.5 18C21.9696 18 21.4609 18.2107 21.0858 18.5858C20.7107 18.9609 20.5 19.4696 20.5 20Z" fill="#FBB040"/>
<path d="M30.5 26V38C30.5 38.5304 30.7107 39.0391 31.0858 39.4142C31.4609 39.7893 31.9696 40 32.5 40C33.0304 40 33.5391 39.7893 33.9142 39.4142C34.2893 39.0391 34.5 38.5304 34.5 38V26C34.5 25.4696 34.2893 24.9609 33.9142 24.5858C33.5391 24.2107 33.0304 24 32.5 24C31.9696 24 31.4609 24.2107 31.0858 24.5858C30.7107 24.9609 30.5 25.4696 30.5 26Z" fill="#FBB040"/>
<path d="M40.5 18V38C40.5 38.5304 40.7107 39.0391 41.0858 39.4142C41.4609 39.7893 41.9696 40 42.5 40C43.0304 40 43.5391 39.7893 43.9142 39.4142C44.2893 39.0391 44.5 38.5304 44.5 38V18C44.5 17.4696 44.2893 16.9609 43.9142 16.5858C43.5391 16.2107 43.0304 16 42.5 16C41.9696 16 41.4609 16.2107 41.0858 16.5858C40.7107 16.9609 40.5 17.4696 40.5 18Z" fill="#FBB040"/>
<path d="M12.4996 17.9998C13.03 17.9997 13.5386 17.7889 13.9136 17.4138L21.0856 10.2418C21.4668 9.87869 21.9731 9.67612 22.4996 9.67612C23.0261 9.67612 23.5324 9.87869 23.9136 10.2418L28.2576 14.5858C29.3827 15.7107 30.9086 16.3426 32.4996 16.3426C34.0906 16.3426 35.6164 15.7107 36.7416 14.5858L47.9136 3.41384C48.2779 3.03663 48.4795 2.53143 48.4749 2.00704C48.4704 1.48264 48.26 0.981017 47.8892 0.610201C47.5184 0.239384 47.0168 0.0290465 46.4924 0.0244897C45.968 0.0199328 45.4628 0.221522 45.0856 0.585838L33.9136 11.7558C33.5385 12.1308 33.0299 12.3414 32.4996 12.3414C31.9692 12.3414 31.4606 12.1308 31.0856 11.7558L26.7416 7.41384C25.6164 6.28901 24.0906 5.65712 22.4996 5.65712C20.9086 5.65712 19.3827 6.28901 18.2576 7.41384L11.0856 14.5858C10.806 14.8655 10.6155 15.2219 10.5384 15.6098C10.4613 15.9977 10.5009 16.3997 10.6522 16.7651C10.8036 17.1305 11.0598 17.4429 11.3887 17.6626C11.7175 17.8824 12.1041 17.9998 12.4996 17.9998Z" fill="#FBB040"/>
</g>
<defs>
<clipPath id="clip0_640_3312">
<rect width="48" height="48" fill="white" transform="translate(0.5)"/>
</clipPath>
</defs>
</svg>
