<svg width="48" height="48" viewBox="0 0 48 48" fill="none" xmlns="http://www.w3.org/2000/svg">
<g clip-path="url(#clip0_640_3326)">
<path d="M38 2H10C7.34881 2.00318 4.80712 3.05776 2.93244 4.93244C1.05776 6.80712 0.00317572 9.34881 0 12L0 28C0.00317572 30.6512 1.05776 33.1929 2.93244 35.0676C4.80712 36.9422 7.34881 37.9968 10 38H22V42H14C13.4696 42 12.9609 42.2107 12.5858 42.5858C12.2107 42.9609 12 43.4696 12 44C12 44.5304 12.2107 45.0391 12.5858 45.4142C12.9609 45.7893 13.4696 46 14 46H34C34.5304 46 35.0391 45.7893 35.4142 45.4142C35.7893 45.0391 36 44.5304 36 44C36 43.4696 35.7893 42.9609 35.4142 42.5858C35.0391 42.2107 34.5304 42 34 42H26V38H38C40.6512 37.9968 43.1929 36.9422 45.0676 35.0676C46.9422 33.1929 47.9968 30.6512 48 28V12C47.9968 9.34881 46.9422 6.80712 45.0676 4.93244C43.1929 3.05776 40.6512 2.00318 38 2ZM10 6H38C39.5913 6 41.1174 6.63214 42.2426 7.75736C43.3679 8.88258 44 10.4087 44 12V26H4V12C4 10.4087 4.63214 8.88258 5.75736 7.75736C6.88258 6.63214 8.4087 6 10 6ZM38 34H10C8.76348 33.9949 7.55874 33.6078 6.5506 32.8918C5.54246 32.1758 4.78017 31.1658 4.368 30H43.632C43.2198 31.1658 42.4575 32.1758 41.4494 32.8918C40.4413 33.6078 39.2365 33.9949 38 34Z" fill="#FBB040"/>
</g>
<defs>
<clipPath id="clip0_640_3326">
<rect width="48" height="48" fill="white"/>
</clipPath>
</defs>
</svg>
