<svg width="49" height="48" viewBox="0 0 49 48" fill="none" xmlns="http://www.w3.org/2000/svg">
<g clip-path="url(#clip0_640_3304)">
<path d="M44.6131 10.46L29.8651 3.43395C26.6187 1.49483 22.5781 1.46042 19.2991 3.34395L4.38515 10.46C4.32918 10.488 4.27115 10.518 4.21715 10.55C0.677898 12.5736 -0.55079 17.0833 1.4729 20.6225C2.15887 21.8224 3.1679 22.8054 4.38515 23.46L8.49918 25.42V35.22C8.50162 39.6021 11.353 43.4736 15.5372 44.776C18.449 45.6184 21.4682 46.0308 24.4992 46C27.5298 46.034 30.549 45.625 33.4612 44.786C37.6454 43.4838 40.4968 39.6122 40.4992 35.23V25.416L44.4993 23.504V39.9999C44.4993 41.1045 45.3947 41.9999 46.4992 41.9999C47.6038 41.9999 48.4992 41.1045 48.4992 39.9999V15.9999C48.5125 13.6514 46.6581 11.4818 44.6131 10.46ZM36.4991 35.23C36.5001 37.8512 34.7995 40.1697 32.2991 40.956C29.7636 41.6805 27.136 42.0321 24.4991 42C21.8622 42.0321 19.2347 41.6805 16.6991 40.956C14.1987 40.1696 12.4981 37.8512 12.4991 35.23V27.326L19.1331 30.4861C20.77 31.4581 22.6395 31.9688 24.5432 31.964C26.3552 31.9769 28.1367 31.4972 29.6972 30.5761L36.4991 27.326V35.23ZM42.8991 19.85L27.8151 27.05C25.712 28.2746 23.1051 28.2399 21.0351 26.96L6.27712 19.94C4.63209 19.0529 4.01765 17.0002 4.90471 15.3553C5.20471 14.799 5.65452 14.3378 6.20315 14.024L21.1931 6.86399C23.297 5.64205 25.9025 5.67664 27.9731 6.95399L42.7211 13.98C43.8057 14.5822 44.4843 15.7195 44.4991 16.96C44.5011 18.1351 43.896 19.2278 42.8991 19.85Z" fill="#FBB040"/>
</g>
<defs>
<clipPath id="clip0_640_3304">
<rect width="48" height="48" fill="white" transform="translate(0.5)"/>
</clipPath>
</defs>
</svg>
