<svg width="25" height="24" viewBox="0 0 25 24" fill="none" xmlns="http://www.w3.org/2000/svg">
<g clip-path="url(#clip0_516_5396)">
<path d="M19.5 1H5.5C4.17441 1.00159 2.90356 1.52888 1.96622 2.46622C1.02888 3.40356 0.501588 4.67441 0.5 6L0.5 18C0.501588 19.3256 1.02888 20.5964 1.96622 21.5338C2.90356 22.4711 4.17441 22.9984 5.5 23H19.5C20.8256 22.9984 22.0964 22.4711 23.0338 21.5338C23.9711 20.5964 24.4984 19.3256 24.5 18V6C24.4984 4.67441 23.9711 3.40356 23.0338 2.46622C22.0964 1.52888 20.8256 1.00159 19.5 1ZM5.5 3H19.5C20.0988 3.00118 20.6835 3.18151 21.179 3.5178C21.6744 3.85409 22.0579 4.33095 22.28 4.887L14.622 12.546C14.0584 13.1073 13.2954 13.4225 12.5 13.4225C11.7046 13.4225 10.9416 13.1073 10.378 12.546L2.72 4.887C2.94215 4.33095 3.32561 3.85409 3.82105 3.5178C4.31648 3.18151 4.90121 3.00118 5.5 3ZM19.5 21H5.5C4.70435 21 3.94129 20.6839 3.37868 20.1213C2.81607 19.5587 2.5 18.7956 2.5 18V7.5L8.964 13.96C9.90263 14.8963 11.1743 15.422 12.5 15.422C13.8257 15.422 15.0974 14.8963 16.036 13.96L22.5 7.5V18C22.5 18.7956 22.1839 19.5587 21.6213 20.1213C21.0587 20.6839 20.2956 21 19.5 21Z" fill="white"/>
</g>
<defs>
<clipPath id="clip0_516_5396">
<rect width="24" height="24" fill="white" transform="translate(0.5)"/>
</clipPath>
</defs>
</svg>
