<svg width="25" height="24" viewBox="0 0 25 24" fill="none" xmlns="http://www.w3.org/2000/svg">
<g clip-path="url(#clip0_516_5392)">
<path d="M19.5019 21C19.5019 21.553 19.0549 22 18.5019 22H6.50192C5.94992 22 5.50192 21.553 5.50192 21C5.50192 20.447 5.94992 20 6.50192 20H18.5019C19.0549 20 19.5019 20.447 19.5019 21ZM6.50192 18C7.05392 18 7.50192 17.552 7.50192 17C7.50192 16.448 7.05392 16 6.50192 16C5.94992 16 5.50192 16.448 5.50192 17C5.50192 17.552 5.94992 18 6.50192 18ZM2.50192 20C1.94992 20 1.50192 20.448 1.50192 21C1.50192 21.552 1.94992 22 2.50192 22C3.05392 22 3.50192 21.552 3.50192 21C3.50192 20.448 3.05392 20 2.50192 20ZM2.50192 16C1.94992 16 1.50192 16.448 1.50192 17C1.50192 17.552 1.94992 18 2.50192 18C3.05392 18 3.50192 17.552 3.50192 17C3.50192 16.448 3.05392 16 2.50192 16ZM11.5019 17C11.5019 16.448 11.0539 16 10.5019 16C9.94992 16 9.50192 16.448 9.50192 17C9.50192 17.552 9.94992 18 10.5019 18C11.0539 18 11.5019 17.552 11.5019 17ZM24.5019 9.085L24.4169 10.349C24.4189 11.78 23.1979 13 21.6979 13C21.6539 13 19.1759 12.678 19.1759 12.678C17.7309 12.64 16.5629 11.47 16.5279 10.024L16.3729 8.732C15.0639 8.238 13.7639 7.984 12.4979 7.978C11.1869 7.986 9.91092 8.221 8.63392 8.722L8.47692 10.024C8.44192 11.47 7.27392 12.64 5.82892 12.678C5.82892 12.678 3.34992 13 3.30592 13C1.80492 13 0.584918 11.779 0.584918 10.279L0.503918 9.153C0.500918 7.702 1.05292 6.386 2.05792 5.381C6.54792 0.892002 18.4559 0.892002 22.9449 5.381C23.9499 6.387 24.5029 7.702 24.5019 9.085ZM22.5039 9.015C22.5039 8.236 22.1579 7.422 21.5299 6.795C17.5469 2.812 6.90492 3.364 3.47292 6.795C2.84592 7.422 2.50092 8.235 2.50192 9.083L2.58192 10.21C2.58392 10.656 2.87992 10.972 3.25392 10.998C3.25392 10.998 5.71192 10.679 5.75592 10.679C6.15292 10.679 6.47692 10.355 6.47692 9.957C6.47692 9.917 6.71692 7.906 6.71692 7.906C6.75892 7.557 6.98092 7.256 7.30092 7.112C8.98392 6.359 10.7769 5.977 12.5069 5.977C14.2109 5.986 15.9539 6.365 17.6859 7.105C18.0149 7.246 18.2439 7.55 18.2869 7.906C18.2869 7.906 18.5259 9.917 18.5259 9.957C18.5259 10.354 18.8499 10.679 19.2479 10.679C19.2919 10.679 21.7499 10.998 21.7499 10.998C22.1229 10.972 22.4189 10.659 22.4189 10.279L22.5039 9.014V9.015ZM15.5019 17C15.5019 16.448 15.0539 16 14.5019 16C13.9499 16 13.5019 16.448 13.5019 17C13.5019 17.552 13.9499 18 14.5019 18C15.0539 18 15.5019 17.552 15.5019 17ZM22.5019 16C21.9499 16 21.5019 16.448 21.5019 17C21.5019 17.552 21.9499 18 22.5019 18C23.0539 18 23.5019 17.552 23.5019 17C23.5019 16.448 23.0539 16 22.5019 16ZM22.5019 20C21.9499 20 21.5019 20.448 21.5019 21C21.5019 21.552 21.9499 22 22.5019 22C23.0539 22 23.5019 21.552 23.5019 21C23.5019 20.448 23.0539 20 22.5019 20ZM18.5019 16C17.9499 16 17.5019 16.448 17.5019 17C17.5019 17.552 17.9499 18 18.5019 18C19.0539 18 19.5019 17.552 19.5019 17C19.5019 16.448 19.0539 16 18.5019 16Z" fill="white"/>
</g>
<defs>
<clipPath id="clip0_516_5392">
<rect width="24" height="24" fill="white" transform="translate(0.5)"/>
</clipPath>
</defs>
</svg>
