<svg width="57" height="54" viewBox="0 0 57 54" fill="none" xmlns="http://www.w3.org/2000/svg">
<g filter="url(#filter0_d_743_2440)">
<mask id="path-1-inside-1_743_2440" fill="white">
<path d="M7.98196 2.07696C7.98196 1.52612 8.19267 0.997833 8.56775 0.608328C8.94282 0.218822 9.45153 4.82504e-07 9.98196 4.82504e-07H19.814C21.4237 -0.00050905 23.0097 0.402545 24.4373 1.17491C25.865 1.94728 27.0919 3.06613 28.014 4.43639L38.242 19.6335C38.3926 19.8573 38.4993 20.1097 38.556 20.3763C38.6127 20.6429 38.6182 20.9185 38.5724 21.1874C38.5265 21.4562 38.4301 21.7131 38.2886 21.9432C38.1472 22.1734 37.9635 22.3724 37.748 22.5288C37.5325 22.6852 37.2894 22.796 37.0327 22.8549C36.7759 22.9138 36.5105 22.9195 36.2516 22.8719C35.9928 22.8243 35.7454 22.7241 35.5238 22.5772C35.3022 22.4304 35.1106 22.2396 34.96 22.0158L28.014 11.6933L11.168 24.5227C10.7399 24.8488 10.2046 24.9849 9.67991 24.9012C9.15518 24.8174 8.68398 24.5206 8.36996 24.0761C8.05594 23.6316 7.92484 23.0757 8.00548 22.5308C8.08612 21.9859 8.3719 21.4965 8.79996 21.1704L25.722 8.2933L24.732 6.82489C24.1799 6.00133 23.4445 5.32843 22.5882 4.8634C21.732 4.39837 20.7802 4.15497 19.814 4.15392H9.98196C9.45153 4.15392 8.94282 3.9351 8.56775 3.54559C8.19267 3.15609 7.98196 2.6278 7.98196 2.07696V2.07696ZM48.648 40.4799C47.9159 41.163 46.9661 41.5404 45.982 41.5392C45.1118 41.5407 44.2599 41.2798 43.5296 40.7884C42.7994 40.297 42.2221 39.596 41.868 38.7706C41.7298 38.3661 41.4745 38.016 41.1369 37.7683C40.7994 37.5207 40.3962 37.3878 39.983 37.3878C39.5697 37.3878 39.1666 37.5207 38.829 37.7683C38.4915 38.016 38.2361 38.3661 38.098 38.7706C37.7426 39.5954 37.165 40.2959 36.4348 40.7874C35.7046 41.2788 34.8531 41.5404 33.983 41.5404C33.1128 41.5404 32.2613 41.2788 31.5311 40.7874C30.8009 40.2959 30.2233 39.5954 29.868 38.7706C29.7298 38.3661 29.4745 38.016 29.1369 37.7683C28.7994 37.5207 28.3962 37.3878 27.983 37.3878C27.5697 37.3878 27.1666 37.5207 26.829 37.7683C26.4915 38.016 26.2361 38.3661 26.098 38.7706C25.7426 39.5954 25.165 40.2959 24.4348 40.7874C23.7047 41.2788 22.8531 41.5404 21.983 41.5404C21.1128 41.5404 20.2613 41.2788 19.5311 40.7874C18.8009 40.2959 18.2233 39.5954 17.868 38.7706C17.7298 38.3661 17.4745 38.016 17.1369 37.7683C16.7994 37.5207 16.3962 37.3878 15.983 37.3878C15.5697 37.3878 15.1666 37.5207 14.829 37.7683C14.4915 38.016 14.2361 38.3661 14.098 38.7706C13.7432 39.596 13.1656 40.2969 12.435 40.7883C11.7045 41.2797 10.8524 41.5405 9.98196 41.5392C8.99783 41.538 8.04865 41.1602 7.31596 40.4779C6.91986 40.1184 6.40336 39.9355 5.87833 39.9688C5.3533 40.002 4.86202 40.2487 4.51088 40.6554C4.15974 41.0621 3.97703 41.5961 4.00231 42.1417C4.0276 42.6873 4.25884 43.2006 4.64596 43.5705C6.11236 44.936 8.01232 45.6918 9.98196 45.6931C12.2217 45.673 14.3688 44.7625 15.982 43.1488C17.5843 44.7796 19.7384 45.6931 21.982 45.6931C24.2255 45.6931 26.3796 44.7796 27.982 43.1488C29.5843 44.7796 31.7384 45.6931 33.982 45.6931C36.2255 45.6931 38.3796 44.7796 39.982 43.1488C41.5946 44.7632 43.7421 45.6738 45.982 45.6931C47.9525 45.695 49.8538 44.9379 51.318 43.5684C51.5228 43.389 51.6908 43.1687 51.8121 42.9206C51.9333 42.6725 52.0053 42.4016 52.0238 42.1241C52.0424 41.8465 52.007 41.5679 51.9198 41.3048C51.8326 41.0417 51.6954 40.7995 51.5164 40.5925C51.3373 40.3856 51.12 40.2181 50.8774 40.1C50.6348 39.9819 50.3718 39.9156 50.1041 39.9051C49.8364 39.8946 49.5693 39.9401 49.3189 40.0389C49.0684 40.1376 48.8395 40.2876 48.646 40.4799H48.648ZM9.98196 35.3083C12.2217 35.2882 14.3688 34.3777 15.982 32.764C17.5843 34.3948 19.7384 35.3083 21.982 35.3083C24.2255 35.3083 26.3796 34.3948 27.982 32.764C29.5843 34.3948 31.7384 35.3083 33.982 35.3083C36.2255 35.3083 38.3796 34.3948 39.982 32.764C41.5946 34.3784 43.7421 35.289 45.982 35.3083C47.9525 35.3102 49.8538 34.5531 51.318 33.1836C51.5228 33.0042 51.6908 32.7839 51.8121 32.5358C51.9333 32.2877 52.0053 32.0168 52.0238 31.7393C52.0424 31.4617 52.007 31.1831 51.9198 30.92C51.8326 30.6569 51.6954 30.4147 51.5164 30.2077C51.3373 30.0008 51.12 29.8333 50.8774 29.7152C50.6348 29.5971 50.3718 29.5308 50.1041 29.5203C49.8364 29.5098 49.5693 29.5553 49.3189 29.6541C49.0684 29.7528 48.8395 29.9028 48.646 30.0951C47.9144 30.7778 46.9655 31.1551 45.982 31.1544C45.1118 31.1559 44.2599 30.895 43.5296 30.4036C42.7994 29.9122 42.2221 29.2112 41.868 28.3858C41.7298 27.9813 41.4745 27.6312 41.1369 27.3836C40.7994 27.1359 40.3962 27.003 39.983 27.003C39.5697 27.003 39.1666 27.1359 38.829 27.3836C38.4915 27.6312 38.2361 27.9813 38.098 28.3858C37.7426 29.2107 37.165 29.9111 36.4348 30.4026C35.7046 30.894 34.8531 31.1556 33.983 31.1556C33.1128 31.1556 32.2613 30.894 31.5311 30.4026C30.8009 29.9111 30.2233 29.2107 29.868 28.3858C29.7298 27.9813 29.4745 27.6312 29.1369 27.3836C28.7994 27.1359 28.3962 27.003 27.983 27.003C27.5697 27.003 27.1666 27.1359 26.829 27.3836C26.4915 27.6312 26.2361 27.9813 26.098 28.3858C25.7426 29.2107 25.165 29.9111 24.4348 30.4026C23.7047 30.894 22.8531 31.1556 21.983 31.1556C21.1128 31.1556 20.2613 30.894 19.5311 30.4026C18.8009 29.9111 18.2233 29.2107 17.868 28.3858C17.7298 27.9813 17.4745 27.6312 17.1369 27.3836C16.7994 27.1359 16.3962 27.003 15.983 27.003C15.5697 27.003 15.1666 27.1359 14.829 27.3836C14.4915 27.6312 14.2361 27.9813 14.098 28.3858C13.7432 29.2112 13.1656 29.9121 12.435 30.4035C11.7045 30.8949 10.8524 31.1557 9.98196 31.1544C8.99783 31.1532 8.04865 30.7754 7.31596 30.0931C6.91986 29.7336 6.40336 29.5507 5.87833 29.584C5.3533 29.6172 4.86202 29.8639 4.51088 30.2706C4.15974 30.6773 3.97703 31.2113 4.00231 31.7569C4.0276 32.3025 4.25884 32.8158 4.64596 33.1857C6.11236 34.5512 8.01232 35.307 9.98196 35.3083V35.3083ZM40.982 14.5387C41.9709 14.5387 42.9376 14.2342 43.7598 13.6636C44.5821 13.0931 45.2229 12.2821 45.6014 11.3334C45.9798 10.3846 46.0788 9.34056 45.8859 8.33333C45.693 7.3261 45.2168 6.40091 44.5175 5.67474C43.8182 4.94857 42.9273 4.45404 41.9574 4.25369C40.9875 4.05334 39.9822 4.15617 39.0685 4.54917C38.1549 4.94217 37.374 5.60769 36.8246 6.46158C36.2752 7.31546 35.982 8.31936 35.982 9.34632C35.982 10.7234 36.5087 12.0441 37.4464 13.0179C38.3841 13.9917 39.6559 14.5387 40.982 14.5387Z"/>
</mask>
<path d="M7.98196 2.07696C7.98196 1.52612 8.19267 0.997833 8.56775 0.608328C8.94282 0.218822 9.45153 4.82504e-07 9.98196 4.82504e-07H19.814C21.4237 -0.00050905 23.0097 0.402545 24.4373 1.17491C25.865 1.94728 27.0919 3.06613 28.014 4.43639L38.242 19.6335C38.3926 19.8573 38.4993 20.1097 38.556 20.3763C38.6127 20.6429 38.6182 20.9185 38.5724 21.1874C38.5265 21.4562 38.4301 21.7131 38.2886 21.9432C38.1472 22.1734 37.9635 22.3724 37.748 22.5288C37.5325 22.6852 37.2894 22.796 37.0327 22.8549C36.7759 22.9138 36.5105 22.9195 36.2516 22.8719C35.9928 22.8243 35.7454 22.7241 35.5238 22.5772C35.3022 22.4304 35.1106 22.2396 34.96 22.0158L28.014 11.6933L11.168 24.5227C10.7399 24.8488 10.2046 24.9849 9.67991 24.9012C9.15518 24.8174 8.68398 24.5206 8.36996 24.0761C8.05594 23.6316 7.92484 23.0757 8.00548 22.5308C8.08612 21.9859 8.3719 21.4965 8.79996 21.1704L25.722 8.2933L24.732 6.82489C24.1799 6.00133 23.4445 5.32843 22.5882 4.8634C21.732 4.39837 20.7802 4.15497 19.814 4.15392H9.98196C9.45153 4.15392 8.94282 3.9351 8.56775 3.54559C8.19267 3.15609 7.98196 2.6278 7.98196 2.07696V2.07696ZM48.648 40.4799C47.9159 41.163 46.9661 41.5404 45.982 41.5392C45.1118 41.5407 44.2599 41.2798 43.5296 40.7884C42.7994 40.297 42.2221 39.596 41.868 38.7706C41.7298 38.3661 41.4745 38.016 41.1369 37.7683C40.7994 37.5207 40.3962 37.3878 39.983 37.3878C39.5697 37.3878 39.1666 37.5207 38.829 37.7683C38.4915 38.016 38.2361 38.3661 38.098 38.7706C37.7426 39.5954 37.165 40.2959 36.4348 40.7874C35.7046 41.2788 34.8531 41.5404 33.983 41.5404C33.1128 41.5404 32.2613 41.2788 31.5311 40.7874C30.8009 40.2959 30.2233 39.5954 29.868 38.7706C29.7298 38.3661 29.4745 38.016 29.1369 37.7683C28.7994 37.5207 28.3962 37.3878 27.983 37.3878C27.5697 37.3878 27.1666 37.5207 26.829 37.7683C26.4915 38.016 26.2361 38.3661 26.098 38.7706C25.7426 39.5954 25.165 40.2959 24.4348 40.7874C23.7047 41.2788 22.8531 41.5404 21.983 41.5404C21.1128 41.5404 20.2613 41.2788 19.5311 40.7874C18.8009 40.2959 18.2233 39.5954 17.868 38.7706C17.7298 38.3661 17.4745 38.016 17.1369 37.7683C16.7994 37.5207 16.3962 37.3878 15.983 37.3878C15.5697 37.3878 15.1666 37.5207 14.829 37.7683C14.4915 38.016 14.2361 38.3661 14.098 38.7706C13.7432 39.596 13.1656 40.2969 12.435 40.7883C11.7045 41.2797 10.8524 41.5405 9.98196 41.5392C8.99783 41.538 8.04865 41.1602 7.31596 40.4779C6.91986 40.1184 6.40336 39.9355 5.87833 39.9688C5.3533 40.002 4.86202 40.2487 4.51088 40.6554C4.15974 41.0621 3.97703 41.5961 4.00231 42.1417C4.0276 42.6873 4.25884 43.2006 4.64596 43.5705C6.11236 44.936 8.01232 45.6918 9.98196 45.6931C12.2217 45.673 14.3688 44.7625 15.982 43.1488C17.5843 44.7796 19.7384 45.6931 21.982 45.6931C24.2255 45.6931 26.3796 44.7796 27.982 43.1488C29.5843 44.7796 31.7384 45.6931 33.982 45.6931C36.2255 45.6931 38.3796 44.7796 39.982 43.1488C41.5946 44.7632 43.7421 45.6738 45.982 45.6931C47.9525 45.695 49.8538 44.9379 51.318 43.5684C51.5228 43.389 51.6908 43.1687 51.8121 42.9206C51.9333 42.6725 52.0053 42.4016 52.0238 42.1241C52.0424 41.8465 52.007 41.5679 51.9198 41.3048C51.8326 41.0417 51.6954 40.7995 51.5164 40.5925C51.3373 40.3856 51.12 40.2181 50.8774 40.1C50.6348 39.9819 50.3718 39.9156 50.1041 39.9051C49.8364 39.8946 49.5693 39.9401 49.3189 40.0389C49.0684 40.1376 48.8395 40.2876 48.646 40.4799H48.648ZM9.98196 35.3083C12.2217 35.2882 14.3688 34.3777 15.982 32.764C17.5843 34.3948 19.7384 35.3083 21.982 35.3083C24.2255 35.3083 26.3796 34.3948 27.982 32.764C29.5843 34.3948 31.7384 35.3083 33.982 35.3083C36.2255 35.3083 38.3796 34.3948 39.982 32.764C41.5946 34.3784 43.7421 35.289 45.982 35.3083C47.9525 35.3102 49.8538 34.5531 51.318 33.1836C51.5228 33.0042 51.6908 32.7839 51.8121 32.5358C51.9333 32.2877 52.0053 32.0168 52.0238 31.7393C52.0424 31.4617 52.007 31.1831 51.9198 30.92C51.8326 30.6569 51.6954 30.4147 51.5164 30.2077C51.3373 30.0008 51.12 29.8333 50.8774 29.7152C50.6348 29.5971 50.3718 29.5308 50.1041 29.5203C49.8364 29.5098 49.5693 29.5553 49.3189 29.6541C49.0684 29.7528 48.8395 29.9028 48.646 30.0951C47.9144 30.7778 46.9655 31.1551 45.982 31.1544C45.1118 31.1559 44.2599 30.895 43.5296 30.4036C42.7994 29.9122 42.2221 29.2112 41.868 28.3858C41.7298 27.9813 41.4745 27.6312 41.1369 27.3836C40.7994 27.1359 40.3962 27.003 39.983 27.003C39.5697 27.003 39.1666 27.1359 38.829 27.3836C38.4915 27.6312 38.2361 27.9813 38.098 28.3858C37.7426 29.2107 37.165 29.9111 36.4348 30.4026C35.7046 30.894 34.8531 31.1556 33.983 31.1556C33.1128 31.1556 32.2613 30.894 31.5311 30.4026C30.8009 29.9111 30.2233 29.2107 29.868 28.3858C29.7298 27.9813 29.4745 27.6312 29.1369 27.3836C28.7994 27.1359 28.3962 27.003 27.983 27.003C27.5697 27.003 27.1666 27.1359 26.829 27.3836C26.4915 27.6312 26.2361 27.9813 26.098 28.3858C25.7426 29.2107 25.165 29.9111 24.4348 30.4026C23.7047 30.894 22.8531 31.1556 21.983 31.1556C21.1128 31.1556 20.2613 30.894 19.5311 30.4026C18.8009 29.9111 18.2233 29.2107 17.868 28.3858C17.7298 27.9813 17.4745 27.6312 17.1369 27.3836C16.7994 27.1359 16.3962 27.003 15.983 27.003C15.5697 27.003 15.1666 27.1359 14.829 27.3836C14.4915 27.6312 14.2361 27.9813 14.098 28.3858C13.7432 29.2112 13.1656 29.9121 12.435 30.4035C11.7045 30.8949 10.8524 31.1557 9.98196 31.1544C8.99783 31.1532 8.04865 30.7754 7.31596 30.0931C6.91986 29.7336 6.40336 29.5507 5.87833 29.584C5.3533 29.6172 4.86202 29.8639 4.51088 30.2706C4.15974 30.6773 3.97703 31.2113 4.00231 31.7569C4.0276 32.3025 4.25884 32.8158 4.64596 33.1857C6.11236 34.5512 8.01232 35.307 9.98196 35.3083V35.3083ZM40.982 14.5387C41.9709 14.5387 42.9376 14.2342 43.7598 13.6636C44.5821 13.0931 45.2229 12.2821 45.6014 11.3334C45.9798 10.3846 46.0788 9.34056 45.8859 8.33333C45.693 7.3261 45.2168 6.40091 44.5175 5.67474C43.8182 4.94857 42.9273 4.45404 41.9574 4.25369C40.9875 4.05334 39.9822 4.15617 39.0685 4.54917C38.1549 4.94217 37.374 5.60769 36.8246 6.46158C36.2752 7.31546 35.982 8.31936 35.982 9.34632C35.982 10.7234 36.5087 12.0441 37.4464 13.0179C38.3841 13.9917 39.6559 14.5387 40.982 14.5387Z" fill="#FBB040"/>
<path d="M7.98196 2.07696C7.98196 1.52612 8.19267 0.997833 8.56775 0.608328C8.94282 0.218822 9.45153 4.82504e-07 9.98196 4.82504e-07H19.814C21.4237 -0.00050905 23.0097 0.402545 24.4373 1.17491C25.865 1.94728 27.0919 3.06613 28.014 4.43639L38.242 19.6335C38.3926 19.8573 38.4993 20.1097 38.556 20.3763C38.6127 20.6429 38.6182 20.9185 38.5724 21.1874C38.5265 21.4562 38.4301 21.7131 38.2886 21.9432C38.1472 22.1734 37.9635 22.3724 37.748 22.5288C37.5325 22.6852 37.2894 22.796 37.0327 22.8549C36.7759 22.9138 36.5105 22.9195 36.2516 22.8719C35.9928 22.8243 35.7454 22.7241 35.5238 22.5772C35.3022 22.4304 35.1106 22.2396 34.96 22.0158L28.014 11.6933L11.168 24.5227C10.7399 24.8488 10.2046 24.9849 9.67991 24.9012C9.15518 24.8174 8.68398 24.5206 8.36996 24.0761C8.05594 23.6316 7.92484 23.0757 8.00548 22.5308C8.08612 21.9859 8.3719 21.4965 8.79996 21.1704L25.722 8.2933L24.732 6.82489C24.1799 6.00133 23.4445 5.32843 22.5882 4.8634C21.732 4.39837 20.7802 4.15497 19.814 4.15392H9.98196C9.45153 4.15392 8.94282 3.9351 8.56775 3.54559C8.19267 3.15609 7.98196 2.6278 7.98196 2.07696V2.07696ZM48.648 40.4799C47.9159 41.163 46.9661 41.5404 45.982 41.5392C45.1118 41.5407 44.2599 41.2798 43.5296 40.7884C42.7994 40.297 42.2221 39.596 41.868 38.7706C41.7298 38.3661 41.4745 38.016 41.1369 37.7683C40.7994 37.5207 40.3962 37.3878 39.983 37.3878C39.5697 37.3878 39.1666 37.5207 38.829 37.7683C38.4915 38.016 38.2361 38.3661 38.098 38.7706C37.7426 39.5954 37.165 40.2959 36.4348 40.7874C35.7046 41.2788 34.8531 41.5404 33.983 41.5404C33.1128 41.5404 32.2613 41.2788 31.5311 40.7874C30.8009 40.2959 30.2233 39.5954 29.868 38.7706C29.7298 38.3661 29.4745 38.016 29.1369 37.7683C28.7994 37.5207 28.3962 37.3878 27.983 37.3878C27.5697 37.3878 27.1666 37.5207 26.829 37.7683C26.4915 38.016 26.2361 38.3661 26.098 38.7706C25.7426 39.5954 25.165 40.2959 24.4348 40.7874C23.7047 41.2788 22.8531 41.5404 21.983 41.5404C21.1128 41.5404 20.2613 41.2788 19.5311 40.7874C18.8009 40.2959 18.2233 39.5954 17.868 38.7706C17.7298 38.3661 17.4745 38.016 17.1369 37.7683C16.7994 37.5207 16.3962 37.3878 15.983 37.3878C15.5697 37.3878 15.1666 37.5207 14.829 37.7683C14.4915 38.016 14.2361 38.3661 14.098 38.7706C13.7432 39.596 13.1656 40.2969 12.435 40.7883C11.7045 41.2797 10.8524 41.5405 9.98196 41.5392C8.99783 41.538 8.04865 41.1602 7.31596 40.4779C6.91986 40.1184 6.40336 39.9355 5.87833 39.9688C5.3533 40.002 4.86202 40.2487 4.51088 40.6554C4.15974 41.0621 3.97703 41.5961 4.00231 42.1417C4.0276 42.6873 4.25884 43.2006 4.64596 43.5705C6.11236 44.936 8.01232 45.6918 9.98196 45.6931C12.2217 45.673 14.3688 44.7625 15.982 43.1488C17.5843 44.7796 19.7384 45.6931 21.982 45.6931C24.2255 45.6931 26.3796 44.7796 27.982 43.1488C29.5843 44.7796 31.7384 45.6931 33.982 45.6931C36.2255 45.6931 38.3796 44.7796 39.982 43.1488C41.5946 44.7632 43.7421 45.6738 45.982 45.6931C47.9525 45.695 49.8538 44.9379 51.318 43.5684C51.5228 43.389 51.6908 43.1687 51.8121 42.9206C51.9333 42.6725 52.0053 42.4016 52.0238 42.1241C52.0424 41.8465 52.007 41.5679 51.9198 41.3048C51.8326 41.0417 51.6954 40.7995 51.5164 40.5925C51.3373 40.3856 51.12 40.2181 50.8774 40.1C50.6348 39.9819 50.3718 39.9156 50.1041 39.9051C49.8364 39.8946 49.5693 39.9401 49.3189 40.0389C49.0684 40.1376 48.8395 40.2876 48.646 40.4799H48.648ZM9.98196 35.3083C12.2217 35.2882 14.3688 34.3777 15.982 32.764C17.5843 34.3948 19.7384 35.3083 21.982 35.3083C24.2255 35.3083 26.3796 34.3948 27.982 32.764C29.5843 34.3948 31.7384 35.3083 33.982 35.3083C36.2255 35.3083 38.3796 34.3948 39.982 32.764C41.5946 34.3784 43.7421 35.289 45.982 35.3083C47.9525 35.3102 49.8538 34.5531 51.318 33.1836C51.5228 33.0042 51.6908 32.7839 51.8121 32.5358C51.9333 32.2877 52.0053 32.0168 52.0238 31.7393C52.0424 31.4617 52.007 31.1831 51.9198 30.92C51.8326 30.6569 51.6954 30.4147 51.5164 30.2077C51.3373 30.0008 51.12 29.8333 50.8774 29.7152C50.6348 29.5971 50.3718 29.5308 50.1041 29.5203C49.8364 29.5098 49.5693 29.5553 49.3189 29.6541C49.0684 29.7528 48.8395 29.9028 48.646 30.0951C47.9144 30.7778 46.9655 31.1551 45.982 31.1544C45.1118 31.1559 44.2599 30.895 43.5296 30.4036C42.7994 29.9122 42.2221 29.2112 41.868 28.3858C41.7298 27.9813 41.4745 27.6312 41.1369 27.3836C40.7994 27.1359 40.3962 27.003 39.983 27.003C39.5697 27.003 39.1666 27.1359 38.829 27.3836C38.4915 27.6312 38.2361 27.9813 38.098 28.3858C37.7426 29.2107 37.165 29.9111 36.4348 30.4026C35.7046 30.894 34.8531 31.1556 33.983 31.1556C33.1128 31.1556 32.2613 30.894 31.5311 30.4026C30.8009 29.9111 30.2233 29.2107 29.868 28.3858C29.7298 27.9813 29.4745 27.6312 29.1369 27.3836C28.7994 27.1359 28.3962 27.003 27.983 27.003C27.5697 27.003 27.1666 27.1359 26.829 27.3836C26.4915 27.6312 26.2361 27.9813 26.098 28.3858C25.7426 29.2107 25.165 29.9111 24.4348 30.4026C23.7047 30.894 22.8531 31.1556 21.983 31.1556C21.1128 31.1556 20.2613 30.894 19.5311 30.4026C18.8009 29.9111 18.2233 29.2107 17.868 28.3858C17.7298 27.9813 17.4745 27.6312 17.1369 27.3836C16.7994 27.1359 16.3962 27.003 15.983 27.003C15.5697 27.003 15.1666 27.1359 14.829 27.3836C14.4915 27.6312 14.2361 27.9813 14.098 28.3858C13.7432 29.2112 13.1656 29.9121 12.435 30.4035C11.7045 30.8949 10.8524 31.1557 9.98196 31.1544C8.99783 31.1532 8.04865 30.7754 7.31596 30.0931C6.91986 29.7336 6.40336 29.5507 5.87833 29.584C5.3533 29.6172 4.86202 29.8639 4.51088 30.2706C4.15974 30.6773 3.97703 31.2113 4.00231 31.7569C4.0276 32.3025 4.25884 32.8158 4.64596 33.1857C6.11236 34.5512 8.01232 35.307 9.98196 35.3083V35.3083ZM40.982 14.5387C41.9709 14.5387 42.9376 14.2342 43.7598 13.6636C44.5821 13.0931 45.2229 12.2821 45.6014 11.3334C45.9798 10.3846 46.0788 9.34056 45.8859 8.33333C45.693 7.3261 45.2168 6.40091 44.5175 5.67474C43.8182 4.94857 42.9273 4.45404 41.9574 4.25369C40.9875 4.05334 39.9822 4.15617 39.0685 4.54917C38.1549 4.94217 37.374 5.60769 36.8246 6.46158C36.2752 7.31546 35.982 8.31936 35.982 9.34632C35.982 10.7234 36.5087 12.0441 37.4464 13.0179C38.3841 13.9917 39.6559 14.5387 40.982 14.5387Z" stroke="#FBB040" stroke-width="2" mask="url(#path-1-inside-1_743_2440)"/>
</g>
<defs>
<filter id="filter0_d_743_2440" x="0" y="0" width="56.0293" height="53.6931" filterUnits="userSpaceOnUse" color-interpolation-filters="sRGB">
<feFlood flood-opacity="0" result="BackgroundImageFix"/>
<feColorMatrix in="SourceAlpha" type="matrix" values="0 0 0 0 0 0 0 0 0 0 0 0 0 0 0 0 0 0 127 0" result="hardAlpha"/>
<feOffset dy="4"/>
<feGaussianBlur stdDeviation="2"/>
<feComposite in2="hardAlpha" operator="out"/>
<feColorMatrix type="matrix" values="0 0 0 0 0 0 0 0 0 0 0 0 0 0 0 0 0 0 0.25 0"/>
<feBlend mode="normal" in2="BackgroundImageFix" result="effect1_dropShadow_743_2440"/>
<feBlend mode="normal" in="SourceGraphic" in2="effect1_dropShadow_743_2440" result="shape"/>
</filter>
</defs>
</svg>
