<svg width="48" height="48" viewBox="0 0 48 48" fill="none" xmlns="http://www.w3.org/2000/svg">
<g clip-path="url(#clip0_743_2427)">
<path d="M44.5 23.9999C44.5008 21.2872 43.9616 18.6014 42.9138 16.0992C41.8659 13.5969 40.3304 11.3283 38.3967 9.4256L38.0432 9.07774L37.6925 9.42845L36.9394 10.1815C36.9392 10.1817 36.9389 10.182 36.9386 10.1823C36.0928 11.023 34.9498 11.4964 33.7572 11.5H31C30.6022 11.5 30.2207 11.658 29.9394 11.9393C29.658 12.2206 29.5 12.6022 29.5 13V15C29.5 16.1935 29.0259 17.3381 28.182 18.182C27.3381 19.0259 26.1935 19.5 25 19.5C24.6022 19.5 24.2207 19.658 23.9394 19.9393C23.658 20.2206 23.5 20.6022 23.5 21V22C23.5 22.663 23.7634 23.2989 24.2322 23.7678C24.7011 24.2366 25.337 24.5 26 24.5H32C33.4587 24.5 34.8577 25.0795 35.8891 26.1109C36.9206 27.1424 37.5 28.5413 37.5 30V31.924V31.9241C37.5001 32.3212 37.6576 32.702 37.938 32.9831L37.9383 32.9834L40.3223 35.3694L40.7541 35.8016L41.0924 35.2928C43.3168 31.9468 44.5024 28.0179 44.5 23.9999ZM44.5 23.9999C44.5 24 44.5 24.0001 44.5 24.0002L44 24L44.5 23.9997C44.5 23.9998 44.5 23.9999 44.5 23.9999ZM26 43.898L26.0498 44.3955C30.7562 43.9241 35.1534 41.8353 38.4922 38.4849L38.8445 38.1314L38.4916 37.7785L35.8185 35.1054C35.8183 35.1052 35.8181 35.105 35.8179 35.1048C34.9772 34.2591 34.5037 33.1162 34.5 31.9239C34.5 31.9234 34.5 31.923 34.5 31.9226L34.5 30C34.5 29.337 34.2366 28.7011 33.7678 28.2322C33.2989 27.7634 32.6631 27.5 32 27.5H26C24.5413 27.5 23.1424 26.9205 22.1109 25.8891C21.0795 24.8576 20.5 23.4587 20.5 22V21C20.5 19.8065 20.9741 18.6619 21.818 17.818C22.6619 16.9741 23.8065 16.5 25 16.5C25.3978 16.5 25.7794 16.342 26.0607 16.0607C26.342 15.7794 26.5 15.3978 26.5 15V13C26.5 11.8065 26.9741 10.6619 27.818 9.81802C28.6619 8.97411 29.8065 8.5 31 8.5L33.758 8.50001L33.761 8.49999C34.1557 8.49766 34.534 8.34121 34.8151 8.06402L34.8176 8.06155L35.2656 7.61355L35.7005 7.17863L35.1859 6.84169C32.3529 4.98668 29.1036 3.86401 25.7297 3.57439C22.3558 3.28478 18.9627 3.8373 15.855 5.18236C12.7473 6.52743 10.0221 8.62297 7.9239 11.281C5.82574 13.939 4.42027 17.0763 3.83357 20.4114L3.7885 20.6676L3.97246 20.8516L12.8884 29.7675C12.8884 29.7675 12.8884 29.7675 12.8885 29.7676C13.1208 30 13.3968 30.1843 13.7005 30.31C14.0042 30.4357 14.3297 30.5003 14.6584 30.5M26 43.898L14.658 30.5H14.6584M26 43.898H25.5V36C25.5 34.5413 24.9205 33.1424 23.8891 32.1109C22.8576 31.0795 21.4587 30.5 20 30.5H14.6584M26 43.898L14.6584 30.5M10.7687 31.8896L10.7676 31.8885L4.45156 25.5725L4.09801 25.926L3.6004 25.9748C4.06323 30.6911 6.14325 35.1021 9.48763 38.4595C12.832 41.817 17.2348 43.9142 21.9492 44.3954L22.5 44.4516V43.898V36C22.5 35.337 22.2366 34.7011 21.7678 34.2322C21.2989 33.7634 20.6631 33.5 20 33.5L14.658 33.5L14.6564 33.5C13.9341 33.5023 13.2184 33.3611 12.5511 33.0847C11.8837 32.8082 11.2778 32.402 10.7687 31.8896ZM10.9441 4.46046C14.8086 1.8783 19.352 0.500053 23.9997 0.5C30.2303 0.506811 36.2037 2.98491 40.6094 7.39059C45.0152 11.7963 47.4933 17.7699 47.5 24.0005C47.4999 28.6482 46.1217 33.1915 43.5395 37.0559C40.9573 40.9205 37.2871 43.9325 32.9931 45.7112C28.699 47.4898 23.9739 47.9552 19.4154 47.0485C14.8568 46.1417 10.6695 43.9035 7.383 40.617C4.09647 37.3305 1.85831 33.1432 0.951557 28.5846C0.044804 24.0261 0.510182 19.301 2.28884 15.0069C4.0675 10.7129 7.07955 7.04268 10.9441 4.46046Z" fill="#FBB040" stroke="#FBB040"/>
</g>
<defs>
<clipPath id="clip0_743_2427">
<rect width="48" height="48" fill="white"/>
</clipPath>
</defs>
</svg>
