<svg width="48" height="50" viewBox="0 0 48 50" fill="none" xmlns="http://www.w3.org/2000/svg">
<path d="M17.9339 49.8473H8.00391C5.88217 49.8473 3.84734 48.972 2.34705 47.414C0.846761 45.8559 0.00390625 43.7428 0.00390625 41.5394V31.1546C0.00390625 28.9513 0.846761 26.8381 2.34705 25.2801C3.84734 23.7221 5.88217 22.8468 8.00391 22.8468H25.7179C26.8003 22.8473 27.8643 23.138 28.8068 23.6907C29.7493 24.2434 30.5385 25.0394 31.0979 26.0017L37.5319 18.6596C38.0641 18.0519 38.7064 17.559 39.4221 17.2092C40.1378 16.8594 40.9129 16.6595 41.703 16.6209C42.4932 16.5823 43.2829 16.7059 44.027 16.9844C44.7712 17.2629 45.4552 17.691 46.0399 18.2443C47.2066 19.3574 47.9059 20.9017 47.987 22.5449C48.0682 24.188 47.5248 25.7985 46.4739 27.0298L32.8739 42.8915C30.9961 45.0786 28.6945 46.8289 26.1198 48.0276C23.5451 49.2263 20.7555 49.8464 17.9339 49.8473ZM8.00391 27.0007C6.94304 27.0007 5.92562 27.4384 5.17548 28.2174C4.42533 28.9964 4.00391 30.0529 4.00391 31.1546V41.5394C4.00391 42.6411 4.42533 43.6977 5.17548 44.4767C5.92562 45.2557 6.94304 45.6934 8.00391 45.6934H17.9339C20.1898 45.6924 22.4199 45.1964 24.4783 44.2379C26.5367 43.2793 28.3767 41.8799 29.8779 40.1313L43.4879 24.2674C43.8413 23.8541 44.0242 23.3132 43.9972 22.7612C43.9703 22.2092 43.7357 21.6902 43.3439 21.3161C42.9455 20.9441 42.4232 20.7482 41.8879 20.7698C41.6225 20.7815 41.3621 20.8479 41.1217 20.9652C40.8813 21.0826 40.6659 21.2484 40.4879 21.4532L31.6359 31.57C31.2473 32.687 30.5739 33.6733 29.6877 34.424C28.8015 35.1746 27.7356 35.6612 26.6039 35.8319L16.2819 37.3647C15.7568 37.443 15.2232 37.3013 14.7987 36.971C14.3741 36.6407 14.0932 36.1488 14.0179 35.6035C13.9426 35.0581 14.079 34.5041 14.397 34.0632C14.7151 33.6222 15.1888 33.3306 15.7139 33.2524L26.0379 31.7216C26.611 31.6384 27.1323 31.3325 27.4965 30.8655C27.8607 30.3986 28.0407 29.8055 28 29.2061C27.9594 28.6066 27.7012 28.0456 27.2776 27.6362C26.854 27.2268 26.2966 26.9997 25.7179 27.0007H8.00391ZM22.0039 18.8466C21.0974 18.8491 20.2174 18.5296 19.5099 17.941C16.0859 15.0873 12.0039 10.8004 12.0039 6.64651C11.9548 4.94001 12.5585 3.28276 13.6829 2.03725C14.8073 0.791739 16.3609 0.0593382 18.0039 0.000244141C19.4986 0.0062898 20.9326 0.614645 22.0039 1.69712C23.0752 0.614645 24.5092 0.0062898 26.0039 0.000244141C27.6469 0.0593382 29.2005 0.791739 30.3249 2.03725C31.4493 3.28276 32.053 4.94001 32.0039 6.64651C32.0039 10.8004 27.9219 15.0873 24.4959 17.9431C23.7887 18.5305 22.9095 18.8492 22.0039 18.8466ZM18.0039 4.15416C17.4226 4.21473 16.8874 4.50978 16.5134 4.97586C16.1394 5.44194 15.9565 6.04182 16.0039 6.64651C16.0039 8.51578 18.3059 11.6104 22.0159 14.703C25.7019 11.6104 28.0039 8.51578 28.0039 6.64651C28.0514 6.04182 27.8684 5.44194 27.4944 4.97586C27.1204 4.50978 26.5852 4.21473 26.0039 4.15416C25.4226 4.21473 24.8874 4.50978 24.5134 4.97586C24.1394 5.44194 23.9565 6.04182 24.0039 6.64651C24.0039 7.19736 23.7932 7.72564 23.4181 8.11515C23.043 8.50465 22.5343 8.72347 22.0039 8.72347C21.4735 8.72347 20.9648 8.50465 20.5897 8.11515C20.2146 7.72564 20.0039 7.19736 20.0039 6.64651C20.0514 6.04182 19.8684 5.44194 19.4944 4.97586C19.1204 4.50978 18.5852 4.21473 18.0039 4.15416Z" fill="#FBB040"/>
</svg>
